<?xml version="1.0" encoding="UTF-8"?>
<svg width="20" height="20" viewBox="0 0 20 20" fill="none" xmlns="http://www.w3.org/2000/svg">
  <path d="M16.868 4.32156C15.6048 3.74156 14.2524 3.31356 12.8429 3.07156C12.8163 3.06673 12.7879 3.07831 12.7741 3.10331C12.6041 3.41156 12.4157 3.81731 12.2827 4.13506C10.7843 3.90873 9.29321 3.90873 7.82337 4.13506C7.69037 3.81006 7.49571 3.41156 7.32471 3.10331C7.31087 3.07931 7.28246 3.06773 7.25587 3.07156C5.84746 3.31256 4.49504 3.74056 3.23079 4.32156C3.21962 4.32639 3.21029 4.33506 3.20471 4.34589C0.619126 8.19489 -0.0969635 11.9399 0.24471 15.6374C0.246543 15.6549 0.256876 15.6716 0.271543 15.6824C2.01246 16.9316 3.69621 17.6741 5.34829 18.1741C5.37487 18.1824 5.40329 18.1716 5.42079 18.1491C5.81996 17.6074 6.17162 17.0366 6.46912 16.4366C6.48579 16.4016 6.46912 16.3599 6.43246 16.3466C5.87746 16.1441 5.34912 15.8974 4.84162 15.6166C4.80079 15.5941 4.79746 15.5357 4.83496 15.5091C4.94662 15.4249 5.05829 15.3366 5.16496 15.2474C5.18412 15.2316 5.21087 15.2282 5.23329 15.2382C8.56996 16.7632 12.1508 16.7632 15.4466 15.2382C15.469 15.2274 15.4958 15.2307 15.5158 15.2466C15.6224 15.3357 15.7341 15.4241 15.8466 15.5091C15.8841 15.5357 15.8816 15.5941 15.8408 15.6166C15.3333 15.9032 14.805 16.1441 14.2491 16.3457C14.2124 16.3591 14.1966 16.4016 14.2133 16.4366C14.5183 17.0357 14.8699 17.6066 15.2608 18.1482C15.2774 18.1716 15.3066 18.1824 15.3333 18.1741C16.9941 17.6741 18.6774 16.9316 20.4183 15.6824C20.4341 15.6716 20.4433 15.6557 20.4449 15.6382C20.8533 11.3899 19.7766 7.67489 17.3849 4.34673C17.3799 4.33506 17.3708 4.32639 17.3591 4.32156H16.868ZM7.02246 13.3757C6.02913 13.3757 5.21246 12.4816 5.21246 11.3824C5.21246 10.2832 6.01246 9.38906 7.02246 9.38906C8.04079 9.38906 8.84912 10.2916 8.83246 11.3824C8.83246 12.4816 8.03246 13.3757 7.02246 13.3757ZM13.5874 13.3757C12.5941 13.3757 11.7774 12.4816 11.7774 11.3824C11.7774 10.2832 12.5774 9.38906 13.5874 9.38906C14.6058 9.38906 15.4141 10.2916 15.3974 11.3824C15.3974 12.4816 14.6058 13.3757 13.5874 13.3757Z" fill="currentColor"/>
</svg>
