<?xml version="1.0" encoding="UTF-8"?>
<svg width="20" height="20" viewBox="0 0 20 20" fill="none" xmlns="http://www.w3.org/2000/svg">
  <path fill-rule="evenodd" clip-rule="evenodd" d="M10 0C4.477 0 0 4.477 0 10C0 14.423 2.865 18.167 6.839 19.489C7.339 19.582 7.521 19.271 7.521 19.008C7.521 18.769 7.512 18.139 7.512 17.293C5 17.807 4.35 16.723 4.15 16.155C4.037 15.864 3.55 14.97 3.125 14.731C2.775 14.542 2.275 14.028 3.112 14.016C3.9 14.004 4.463 14.745 4.65 15.049C5.55 16.581 6.988 16.194 7.558 15.931C7.651 15.281 7.912 14.847 8.2 14.595C5.975 14.343 3.65 13.47 3.65 9.595C3.65 8.493 4.037 7.577 4.675 6.849C4.57 6.598 4.225 5.566 4.775 4.178C4.775 4.178 5.612 3.915 7.525 5.218C8.325 4.993 9.175 4.88 10.025 4.88C10.875 4.88 11.725 4.993 12.525 5.218C14.437 3.903 15.275 4.178 15.275 4.178C15.825 5.566 15.48 6.598 15.375 6.849C16.012 7.577 16.4 8.481 16.4 9.595C16.4 13.482 14.063 14.343 11.838 14.595C12.2 14.91 12.513 15.516 12.513 16.466C12.513 17.847 12.5 18.671 12.5 19.008C12.5 19.271 12.688 19.595 13.188 19.489C17.137 18.167 20 14.411 20 10C20 4.477 15.523 0 10 0Z" fill="currentColor"/>
</svg>
