<?xml version="1.0" encoding="UTF-8"?>
<svg width="20" height="20" viewBox="0 0 20 20" fill="none" xmlns="http://www.w3.org/2000/svg">
  <path d="M15.8333 2.5H4.16667C3.24619 2.5 2.5 3.24619 2.5 4.16667V15.8333C2.5 16.7538 3.24619 17.5 4.16667 17.5H15.8333C16.7538 17.5 17.5 16.7538 17.5 15.8333V4.16667C17.5 3.24619 16.7538 2.5 15.8333 2.5ZM7.08333 14.1667H5V8.33333H7.08333V14.1667ZM6.04167 7.42917C5.37083 7.42917 4.82917 6.8875 4.82917 6.21667C4.82917 5.54583 5.37083 5.00417 6.04167 5.00417C6.7125 5.00417 7.25417 5.54583 7.25417 6.21667C7.25417 6.8875 6.7125 7.42917 6.04167 7.42917ZM15 14.1667H12.9167V11.25C12.9167 10.4792 12.9 9.47917 11.8292 9.47917C10.7417 9.47917 10.5833 10.3208 10.5833 11.1917V14.1667H8.5V8.33333H10.5V9.23333H10.525C10.8 8.71667 11.4583 8.17083 12.4542 8.17083C14.5667 8.17083 15 9.5375 15 11.3208V14.1667Z" fill="currentColor"/>
</svg>
