<?xml version="1.0" encoding="UTF-8"?>
<svg xmlns="http://www.w3.org/2000/svg" viewBox="0 0 48 48">
  <path fill="#FF9900" d="M26.54,35.55c-3.21,2.37-7.87,3.64-11.88,3.64c-5.62,0-10.68-2.08-14.51-5.54c-0.3-0.27-0.03-0.64,0.33-0.43 c4.14,2.41,9.27,3.86,14.56,3.86c3.57,0,7.5-0.74,11.11-2.28C26.85,34.44,27.21,35.1,26.54,35.55z"/>
  <path fill="#FF9900" d="M27.92,33.97c-0.41-0.52-2.71-0.25-3.74-0.13c-0.31,0.04-0.36-0.24-0.08-0.43c1.83-1.29,4.84-0.92,5.19-0.49 c0.35,0.43-0.09,3.44-1.81,4.87c-0.26,0.22-0.52,0.1-0.4-0.19C27.48,36.56,28.33,34.5,27.92,33.97z"/>
  <path fill="#FF9900" d="M25.11,12.91c0,1.19,0.03,2.18-0.57,3.24c-0.48,0.86-1.24,1.39-2.09,1.39c-1.16,0-1.84-0.88-1.84-2.18 c0-2.57,2.3-3.03,4.49-3.03V12.91z M27.42,18.51c-0.19,0.17-0.46,0.18-0.67,0.07c-0.94-0.78-1.11-1.15-1.63-1.9 c-1.56,1.59-2.66,2.07-4.68,2.07c-2.39,0-4.25-1.47-4.25-4.42c0-2.3,1.25-3.87,3.02-4.64c1.54-0.68,3.69-0.8,5.33-0.99v-0.37 c0-0.67,0.05-1.47-0.34-2.05c-0.35-0.52-1.01-0.74-1.59-0.74c-1.08,0-2.05,0.56-2.28,1.71c-0.05,0.26-0.24,0.51-0.5,0.52l-2.78-0.3 c-0.23-0.05-0.49-0.24-0.43-0.58C17.02,3.08,20.21,2,23.07,2c1.44,0,3.32,0.38,4.46,1.47c1.44,1.34,1.3,3.12,1.3,5.06v4.58 c0,1.38,0.57,1.98,1.11,2.72c0.19,0.26,0.23,0.58-0.01,0.78C29.23,17.24,28.09,18.07,27.42,18.51L27.42,18.51z"/>
</svg>
