<?xml version="1.0" encoding="UTF-8"?>
<svg xmlns="http://www.w3.org/2000/svg" viewBox="0 0 48 48">
  <path fill="#1DA1F2" d="M42,12.4c-1.4,0.6-2.9,1-4.5,1.2c1.6-1,2.8-2.5,3.4-4.3C39.4,10.1,37.8,10.8,36,11c-1.4-1.5-3.4-2.5-5.7-2.5 c-4.3,0-7.8,3.5-7.8,7.8c0,0.6,0.1,1.2,0.2,1.8c-6.5-0.3-12.2-3.4-16-8.1c-0.7,1.1-1.1,2.5-1.1,3.9c0,2.7,1.4,5.1,3.5,6.5 c-1.3,0-2.5-0.4-3.5-1v0.1c0,3.8,2.7,6.9,6.2,7.6c-0.6,0.2-1.3,0.3-2,0.3c-0.5,0-1-0.1-1.4-0.2c1,3.1,3.9,5.3,7.3,5.4 c-2.7,2.1-6,3.3-9.7,3.3c-0.6,0-1.2,0-1.9-0.1c3.4,2.2,7.5,3.5,11.9,3.5c14.3,0,22.1-11.9,22.1-22.1c0-0.3,0-0.7,0-1 C39.8,15.3,41.1,13.9,42,12.4z"/>
</svg>
